<?xml version="1.0" encoding="UTF-8"?>
<svg width="1395px" height="816px" viewBox="0 0 1395 816" version="1.1" xmlns="http://www.w3.org/2000/svg" xmlns:xlink="http://www.w3.org/1999/xlink">
    <!-- Generator: Sketch 60.1 (88133) - https://sketch.com -->
    <title>电脑办公</title>
    <desc>Created with Sketch.</desc>
    <defs>
        <path d="M155.032903,37.9988727 C283.714227,12.6662909 389.096338,6.39488462e-14 471.179236,6.39488462e-14 C553.262135,6.39488462e-14 677.098783,12.6662909 842.689182,37.9988727 L981.815455,182.589404 C990.052409,189.825047 994.950061,199.959806 996.508409,212.993681 L0.668756092,212.993681 C5.1020434,197.058878 10.3471508,186.924119 16.4040784,182.589404 C22.461006,178.254689 68.6706143,130.057846 155.032903,37.9988727 Z" id="path-1"></path>
        <path d="M303.090414,2.84217094e-14 L13.6571097,2.84217094e-14 C4.55667773,2.61196165 0.00646173376,9.99959214 0.00646173376,22.1628915 C0.00646173376,34.3261908 0.00646173376,146.046578 0.00646173376,357.324053 C-0.195890536,368.92275 4.35432546,374.722099 13.6571097,374.722099 C22.959894,374.722099 223.372179,373.449489 614.893964,370.90427 C626.512959,367.603241 632.322456,360.383367 632.322456,349.24465 C632.322456,338.105932 630.62552,227.300994 627.231649,16.8298358 C628.324713,5.60994526 625.373441,2.84217094e-14 618.377834,2.84217094e-14 C611.382227,2.84217094e-14 506.28642,2.84217094e-14 303.090414,2.84217094e-14 Z" id="path-3"></path>
        <path d="M22.5761051,0.456908124 L278.36957,0.456908124 L285.251642,4.22945692 C297.95817,25.6908976 304.624828,37.1350907 305.251613,38.5620363 C305.878399,39.9889819 304.864764,41.4145117 302.210709,42.8386258 L3.29871983,42.8386258 L0.487875912,38.2037789 L16.6499263,3.6798419 L22.5761051,0.456908124 Z" id="path-5"></path>
        <path d="M0.0379161118,93.1686826 C40.0534685,93.1686826 100.470345,93.1686826 181.288546,93.1686826 C178.987266,58.8939346 162.81097,41.7565607 132.759658,41.7565607 C121.308814,13.719732 102.945541,0.181911839 77.669839,1.14310031 C52.3941368,2.10428878 35.9149747,19.970161 28.2323527,54.7407171 C8.72103033,59.4487929 -0.677115211,72.2581148 0.0379161118,93.1686826 Z" id="path-7"></path>
        <path d="M0,11.4371184 C64.9763017,11.6629882 101.908834,8.15563153 110.797597,0.915048544 C124.361609,77.4415745 139.772561,128.337975 157.030454,153.604251 C141.048046,161.429718 122.142194,164.054006 100.312896,161.477117 C67.5689503,157.611783 53.9803621,148.840541 29.6831604,120.014747 C13.4850259,100.797551 3.59063911,64.6050079 0,11.4371184 Z" id="path-9"></path>
        <path d="M17.0688348,104.164849 C76.3645646,48.220897 111.020333,15.5458442 121.03614,6.13969016 C136.05985,-7.96954084 159.752185,3.95263867 139.673134,24.5081111 C126.287099,38.2117594 91.2632989,70.9508972 34.6017322,122.725524 L0.00146075529,138.301532 L17.0688348,104.164849 Z" id="path-11"></path>
        <path d="M39.7690824,6.53848708 L0,84.7876736 C41.4638912,72.7343409 72.5679184,72.7343409 93.3120817,84.7876736 C144.997622,80.8609287 179.581733,90.6133521 197.064415,114.044944 L244.278634,22.3886762 L179.145581,0 L39.7690824,6.53848708 Z" id="path-13"></path>
        <path d="M16.2750547,6.62558514 C21.3433078,18.5529487 17.7813298,26.8577354 5.58912082,31.5399454 C-6.60308818,36.2221554 1.15193134,43.349971 28.8541794,52.9233921 L68.8982387,36.3612336 L56.9432803,25.4803706 C44.5726535,24.0515447 38.3873401,15.6277899 38.3873401,0.20910634 C26.9363081,3.84077208 19.5655463,5.97959835 16.2750547,6.62558514 Z" id="path-15"></path>
        <path d="M128.290386,0 C161.982217,2.90180062 185.807218,13.6400058 199.765389,32.2146156 C213.72356,50.7892255 225.730125,66.1480549 235.785084,78.2911038 L175.547497,101.309533 C179.874322,123.986534 182.037735,148.641689 182.037735,175.275 L10.7550467,173.242987 L0,68.4395989 L39.7393269,18.7508111 C50.7591398,9.51732956 66.8639565,4.083824 88.0537769,2.4502944 C80.4789676,10.5588945 84.9515933,15.9924 101.471654,18.7508111 C125.663329,18.7508111 134.602906,12.5005407 128.290386,0 Z" id="path-17"></path>
        <path d="M56.7099635,20.7405193 C70.7717602,38.5348995 51.8684391,53.6932523 0,66.2155777 L6.4126361,92.25 C100.14157,87.563093 134.767164,56.813093 110.289418,0 C89.2512132,0.567719972 71.3913952,7.48122641 56.7099635,20.7405193 Z" id="path-19"></path>
        <polygon id="path-21" points="45.3102537 0.296672087 55.118591 55.8955645 52.0601734 70.725 31.8096048 70.725 8.11016641e-13 19.4008402 26.1012963 0"></polygon>
        <polygon id="path-23" points="32.4614477 0.0776629703 52.0564471 45.1631951 48.3120121 65.0696121 27.5574809 55.809503 0 28.3381592"></polygon>
        <path d="M0,58.7461719 C6.33343176,110.374197 24.1002836,133.607606 53.3005555,128.446396 C77.2338018,122.153997 88.7643175,105.17735 87.8921026,77.5164546 C98.9542499,74.5206471 103.041643,64.7048528 100.154283,48.0690718 C96.2107873,40.1328493 89.9176386,40.1328493 81.2748371,48.0690718 L79.6422449,0 L8.32458089,3.69997047 L0,58.7461719 Z" id="path-25"></path>
        <path d="M20.9447434,0 C10.3277043,12.8631584 3.9528854,21.1813972 1.8202866,24.9547165 C1.05927661,28.0040185 3.11833477,33.3237253 7.99746109,40.9138369 L1.8202866,104.517289 C-1.93687223,117.952407 0.122185932,126.835968 7.99746109,131.167969 L63.2652683,20.9629768 C55.2876121,15.5468177 45.5924414,13.2137099 34.179756,13.9636535 C29.87455,6.75296187 27.0582981,2.65865711 25.7310002,1.68073926 C24.4037023,0.702821404 22.8082834,0.142574985 20.9447434,0 Z" id="path-27"></path>
        <path d="M14.9638063,21.1352571 C22.7332026,13.3987848 30.949463,6.4063077 39.6125873,0.157825733 C40.7331648,-0.721471119 42.8938143,2.07336175 46.0945357,8.54232434 C49.2952572,15.0112869 51.9154565,18.9243853 53.9551337,20.2816196 C62.2588945,20.8094728 68.7011312,23.634845 73.2818436,28.7577362 L16.2956334,132.474627 C3.55162822,127.739045 -1.49034664,120.779233 1.16970886,111.59519 C5.15979211,97.819125 6.23003451,96.1017919 8.80264026,86.9348505 C10.5177108,80.8235562 14.4028674,66.7151465 20.45811,44.6096216 C19.4107969,37.7740729 18.0233047,32.4901111 16.2956334,28.7577362 C14.5679622,25.0253613 14.1240198,22.4845349 14.9638063,21.1352571 Z" id="path-29"></path>
        <path d="M27.2763947,0.898040076 C30.6097724,-1.17088933 32.4418113,0.335023587 32.7725113,5.41577884 C30.8373903,11.1008599 26.8303388,14.9341881 20.7513566,16.9157637 C11.6328834,19.8881269 4.00249439,15.5282613 2.19467532,13.9662201 C0.386856242,12.4041789 -2.15635973,6.9643752 3.31493485,6.9643752 C8.78622944,6.9643752 22.2763281,4.00143419 27.2763947,0.898040076 Z" id="path-31"></path>
    </defs>
    <g id="页面-1" stroke="none" stroke-width="1" fill="none" fill-rule="evenodd">
        <g id="画板" transform="translate(-3451.000000, -2484.000000)">
            <g id="电脑办公" transform="translate(3451.000000, 2484.000000)">
                <g id="办公电脑备份-2" transform="translate(0.000000, 4.000000)">
                    <g id="编组-3" transform="translate(233.524229, 29.219697)">
                        <g id="矩形">
                            <g id="蒙版" fill="#6871FF">
                                <g transform="translate(0.384477, 0.000000)" id="矩形">
                                    <rect x="0" y="0" width="767.974573" height="459.825758"></rect>
                                </g>
                            </g>
                            <rect fill="#B1B5FF" x="-27.7372306" y="-13.8815323" width="819.98188" height="41.6445969"></rect>
                            <ellipse id="椭圆形" fill="#FF7272" cx="20.802923" cy="15.6167238" rx="8.66788457" ry="8.67595769"></ellipse>
                            <ellipse id="椭圆形备份-94" fill="#FFDE30" cx="48.5401536" cy="15.6167238" rx="8.66788457" ry="8.67595769"></ellipse>
                            <ellipse id="椭圆形备份-95" fill="#8BDD7A" cx="76.2773842" cy="15.6167238" rx="8.66788457" ry="8.67595769"></ellipse>
                        </g>
                        <rect id="矩形" fill="#5058D0" x="112.682499" y="128.404174" width="632.755574" height="296.717753"></rect>
                        <rect id="矩形" fill="#6871FF" x="728.102304" y="5.20557461" width="20.802923" height="15.6167238"></rect>
                        <rect id="矩形备份-3" fill="#D4D6FF" x="724.63515" y="8.67595769" width="20.802923" height="15.6167238"></rect>
                    </g>
                    <ellipse id="椭圆形-2" fill="#5D4DDA" cx="697.5" cy="683.587121" rx="697.5" ry="128.412879"></ellipse>
                    <g id="表格" transform="translate(67.599119, 264.515152)">
                        <rect id="矩形" fill="#74F5FF" x="0" y="0" width="456.294053" height="275.280303"></rect>
                        <path d="M17.1378048,251.806789 L17.1378048,19.2056025 L344.898322,19.2056025 L344.898322,251.806789 L17.1378048,251.806789 Z M88.9018048,233.107603 L69.0478048,233.107603 L69.0478048,249.672603 L88.9018048,249.672603 L88.9018048,233.107603 Z M183.159805,233.107603 L163.305805,233.107603 L163.305805,249.672603 L183.159805,249.672603 L183.159805,233.107603 Z M112.466805,233.107603 L92.6118048,233.107603 L92.6118048,249.672603 L112.466805,249.672603 L112.466805,233.107603 Z M206.723805,233.107603 L186.869805,233.107603 L186.869805,249.672603 L206.723805,249.672603 L206.723805,233.107603 Z M40.9698048,233.107603 L19.2800304,233.108015 L19.2800304,249.672833 L40.9698048,249.672603 L40.9698048,233.107603 Z M230.288805,233.107603 L210.434805,233.107603 L210.434805,249.672603 L230.288805,249.672603 L230.288805,233.107603 Z M136.030805,233.107603 L116.176805,233.107603 L116.176805,249.672603 L136.030805,249.672603 L136.030805,233.107603 Z M253.852805,233.107603 L233.998805,233.107603 L233.998805,249.672603 L253.852805,249.672603 L253.852805,233.107603 Z M65.3378048,233.107603 L44.6798048,233.107603 L44.6798048,249.672603 L65.3378048,249.672603 L65.3378048,233.107603 Z M277.417805,233.107603 L257.563805,233.107603 L257.563805,249.672603 L277.417805,249.672603 L277.417805,233.107603 Z M159.595805,233.107603 L139.740805,233.107603 L139.740805,249.672603 L159.595805,249.672603 L159.595805,233.107603 Z M342.756096,21.3395584 L281.127805,21.3386025 L281.127805,44.8046025 L311.626043,44.8051673 L311.626043,48.5129298 L281.127805,48.5126025 L281.127805,71.4866025 L311.626043,71.4875206 L311.626043,75.1952831 L281.127805,75.1946025 L281.127805,97.0946025 L311.626043,97.0949906 L311.626043,100.802753 L281.127805,100.802603 L281.127805,122.701603 L311.626043,122.702461 L311.626043,126.410223 L281.127805,126.409603 L281.127805,144.041603 L311.626043,144.042019 L311.626043,147.749782 L281.127805,147.749603 L281.127805,165.380603 L311.626043,165.381577 L311.626043,169.08934 L281.127805,169.088603 L281.127805,186.720603 L311.626043,186.721136 L311.626043,190.428898 L281.127805,190.428603 L281.127805,208.060603 L311.626043,208.060694 L311.626043,211.768457 L281.127805,211.767603 L281.127805,229.399603 L311.626043,229.400253 L311.626043,233.108015 L281.127805,233.107603 L281.127805,249.672603 L342.756096,249.672833 L342.756096,21.3395584 Z M277.417805,229.399603 L277.417805,211.767603 L257.563805,211.767603 L257.563805,229.399603 L277.417805,229.399603 Z M183.159805,211.767603 L163.305805,211.767603 L163.305805,229.399603 L183.159805,229.399603 L183.159805,211.767603 Z M159.595805,211.767603 L139.740805,211.767603 L139.740805,229.399603 L159.595805,229.399603 L159.595805,211.767603 Z M136.030805,211.767603 L116.176805,211.767603 L116.176805,229.399603 L136.030805,229.399603 L136.030805,211.767603 Z M112.466805,211.767603 L92.6118048,211.767603 L92.6118048,229.399603 L112.466805,229.399603 L112.466805,211.767603 Z M88.9018048,211.767603 L69.0478048,211.767603 L69.0478048,229.399603 L88.9018048,229.399603 L88.9018048,211.767603 Z M65.3378048,211.767603 L44.6798048,211.767603 L44.6798048,229.399603 L65.3378048,229.399603 L65.3378048,211.767603 Z M40.9698048,211.767603 L19.2800304,211.768457 L19.2800304,229.400253 L40.9698048,229.399603 L40.9698048,211.767603 Z M206.723805,211.767603 L186.869805,211.767603 L186.869805,229.399603 L206.723805,229.399603 L206.723805,211.767603 Z M230.288805,211.767603 L210.434805,211.767603 L210.434805,229.399603 L230.288805,229.399603 L230.288805,211.767603 Z M253.852805,211.767603 L233.998805,211.767603 L233.998805,229.399603 L253.852805,229.399603 L253.852805,211.767603 Z M277.417805,208.060603 L277.417805,190.428603 L257.563805,190.428603 L257.563805,208.060603 L277.417805,208.060603 Z M183.159805,190.428603 L163.305805,190.428603 L163.305805,208.060603 L183.159805,208.060603 L183.159805,190.428603 Z M159.595805,190.428603 L139.740805,190.428603 L139.740805,208.060603 L159.595805,208.060603 L159.595805,190.428603 Z M136.030805,190.428603 L116.176805,190.428603 L116.176805,208.060603 L136.030805,208.060603 L136.030805,190.428603 Z M112.466805,190.428603 L92.6118048,190.428603 L92.6118048,208.060603 L112.466805,208.060603 L112.466805,190.428603 Z M88.9018048,190.428603 L69.0478048,190.428603 L69.0478048,208.060603 L88.9018048,208.060603 L88.9018048,190.428603 Z M65.3378048,190.428603 L44.6798048,190.428603 L44.6798048,208.060603 L65.3378048,208.060603 L65.3378048,190.428603 Z M40.9698048,190.428603 L19.2800304,190.428898 L19.2800304,208.060694 L40.9698048,208.060603 L40.9698048,190.428603 Z M206.723805,190.428603 L186.869805,190.428603 L186.869805,208.060603 L206.723805,208.060603 L206.723805,190.428603 Z M230.288805,190.428603 L210.434805,190.428603 L210.434805,208.060603 L230.288805,208.060603 L230.288805,190.428603 Z M253.852805,190.428603 L233.998805,190.428603 L233.998805,208.060603 L253.852805,208.060603 L253.852805,190.428603 Z M277.417805,186.720603 L277.417805,169.088603 L257.563805,169.088603 L257.563805,186.720603 L277.417805,186.720603 Z M253.852805,169.088603 L233.998805,169.088603 L233.998805,186.720603 L253.852805,186.720603 L253.852805,169.088603 Z M230.288805,169.088603 L210.434805,169.088603 L210.434805,186.720603 L230.288805,186.720603 L230.288805,169.088603 Z M206.723805,169.088603 L186.869805,169.088603 L186.869805,186.720603 L206.723805,186.720603 L206.723805,169.088603 Z M183.159805,169.088603 L163.305805,169.088603 L163.305805,186.720603 L183.159805,186.720603 L183.159805,169.088603 Z M159.595805,169.088603 L139.740805,169.088603 L139.740805,186.720603 L159.595805,186.720603 L159.595805,169.088603 Z M136.030805,169.088603 L116.176805,169.088603 L116.176805,186.720603 L136.030805,186.720603 L136.030805,169.088603 Z M112.466805,169.088603 L92.6118048,169.088603 L92.6118048,186.720603 L112.466805,186.720603 L112.466805,169.088603 Z M88.9018048,169.088603 L69.0478048,169.088603 L69.0478048,186.720603 L88.9018048,186.720603 L88.9018048,169.088603 Z M65.3378048,169.088603 L44.6798048,169.088603 L44.6798048,186.720603 L65.3378048,186.720603 L65.3378048,169.088603 Z M40.9698048,169.088603 L19.2800304,169.08934 L19.2800304,186.721136 L40.9698048,186.720603 L40.9698048,169.088603 Z M277.417805,165.380603 L277.417805,147.749603 L257.563805,147.749603 L257.563805,165.380603 L277.417805,165.380603 Z M65.3378048,147.749603 L44.6798048,147.749603 L44.6798048,165.380603 L65.3378048,165.380603 L65.3378048,147.749603 Z M88.9018048,147.749603 L69.0478048,147.749603 L69.0478048,165.380603 L88.9018048,165.380603 L88.9018048,147.749603 Z M112.466805,147.749603 L92.6118048,147.749603 L92.6118048,165.380603 L112.466805,165.380603 L112.466805,147.749603 Z M136.030805,147.749603 L116.176805,147.749603 L116.176805,165.380603 L136.030805,165.380603 L136.030805,147.749603 Z M159.595805,147.749603 L139.740805,147.749603 L139.740805,165.380603 L159.595805,165.380603 L159.595805,147.749603 Z M183.159805,147.749603 L163.305805,147.749603 L163.305805,165.380603 L183.159805,165.380603 L183.159805,147.749603 Z M206.723805,147.749603 L186.869805,147.749603 L186.869805,165.380603 L206.723805,165.380603 L206.723805,147.749603 Z M230.288805,147.749603 L210.434805,147.749603 L210.434805,165.380603 L230.288805,165.380603 L230.288805,147.749603 Z M253.852805,147.749603 L233.998805,147.749603 L233.998805,165.380603 L253.852805,165.380603 L253.852805,147.749603 Z M40.9698048,147.749603 L19.2800304,147.749782 L19.2800304,165.381577 L40.9698048,165.380603 L40.9698048,147.749603 Z M277.417805,144.041603 L277.417805,126.409603 L257.563805,126.409603 L257.563805,144.041603 L277.417805,144.041603 Z M65.3378048,126.409603 L44.6798048,126.409603 L44.6798048,144.041603 L65.3378048,144.041603 L65.3378048,126.409603 Z M40.9698048,126.409603 L19.2800304,126.410223 L19.2800304,144.042019 L40.9698048,144.041603 L40.9698048,126.409603 Z M88.9018048,126.409603 L69.0478048,126.409603 L69.0478048,144.041603 L88.9018048,144.041603 L88.9018048,126.409603 Z M112.466805,126.409603 L92.6118048,126.409603 L92.6118048,144.041603 L112.466805,144.041603 L112.466805,126.409603 Z M136.030805,126.409603 L116.176805,126.409603 L116.176805,144.041603 L136.030805,144.041603 L136.030805,126.409603 Z M159.595805,126.409603 L139.740805,126.409603 L139.740805,144.041603 L159.595805,144.041603 L159.595805,126.409603 Z M183.159805,126.409603 L163.305805,126.409603 L163.305805,144.041603 L183.159805,144.041603 L183.159805,126.409603 Z M206.723805,126.409603 L186.869805,126.409603 L186.869805,144.041603 L206.723805,144.041603 L206.723805,126.409603 Z M230.288805,126.409603 L210.434805,126.409603 L210.434805,144.041603 L230.288805,144.041603 L230.288805,126.409603 Z M253.852805,126.409603 L233.998805,126.409603 L233.998805,144.041603 L253.852805,144.041603 L253.852805,126.409603 Z M277.417805,122.701603 L277.417805,100.802603 L257.563805,100.802603 L257.563805,122.701603 L277.417805,122.701603 Z M253.852805,100.802603 L233.998805,100.802603 L233.998805,122.701603 L253.852805,122.701603 L253.852805,100.802603 Z M230.288805,100.802603 L210.434805,100.802603 L210.434805,122.701603 L230.288805,122.701603 L230.288805,100.802603 Z M206.723805,100.802603 L186.869805,100.802603 L186.869805,122.701603 L206.723805,122.701603 L206.723805,100.802603 Z M183.159805,100.802603 L163.305805,100.802603 L163.305805,122.701603 L183.159805,122.701603 L183.159805,100.802603 Z M159.595805,100.802603 L139.740805,100.802603 L139.740805,122.701603 L159.595805,122.701603 L159.595805,100.802603 Z M136.030805,100.802603 L116.176805,100.802603 L116.176805,122.701603 L136.030805,122.701603 L136.030805,100.802603 Z M112.466805,100.802603 L92.6118048,100.802603 L92.6118048,122.701603 L112.466805,122.701603 L112.466805,100.802603 Z M88.9018048,100.802603 L69.0478048,100.802603 L69.0478048,122.701603 L88.9018048,122.701603 L88.9018048,100.802603 Z M65.3378048,100.802603 L44.6798048,100.802603 L44.6798048,122.701603 L65.3378048,122.701603 L65.3378048,100.802603 Z M40.9698048,100.802603 L19.2800304,100.802753 L19.2800304,122.702461 L40.9698048,122.701603 L40.9698048,100.802603 Z M277.417805,97.0946025 L277.417805,75.1946025 L257.563805,75.1946025 L257.563805,97.0946025 L277.417805,97.0946025 Z M253.852805,75.1946025 L233.998805,75.1946025 L233.998805,97.0946025 L253.852805,97.0946025 L253.852805,75.1946025 Z M112.466805,75.1946025 L92.6118048,75.1946025 L92.6118048,97.0946025 L112.466805,97.0946025 L112.466805,75.1946025 Z M88.9018048,75.1946025 L69.0478048,75.1946025 L69.0478048,97.0946025 L88.9018048,97.0946025 L88.9018048,75.1946025 Z M65.3378048,75.1946025 L44.6798048,75.1946025 L44.6798048,97.0946025 L65.3378048,97.0946025 L65.3378048,75.1946025 Z M40.9698048,75.1946025 L19.2800304,75.1952831 L19.2800304,97.0949906 L40.9698048,97.0946025 L40.9698048,75.1946025 Z M136.030805,75.1946025 L116.176805,75.1946025 L116.176805,97.0946025 L136.030805,97.0946025 L136.030805,75.1946025 Z M159.595805,75.1946025 L139.740805,75.1946025 L139.740805,97.0946025 L159.595805,97.0946025 L159.595805,75.1946025 Z M183.159805,75.1946025 L163.305805,75.1946025 L163.305805,97.0946025 L183.159805,97.0946025 L183.159805,75.1946025 Z M206.723805,75.1946025 L186.869805,75.1946025 L186.869805,97.0946025 L206.723805,97.0946025 L206.723805,75.1946025 Z M230.288805,75.1946025 L210.434805,75.1946025 L210.434805,97.0946025 L230.288805,97.0946025 L230.288805,75.1946025 Z M277.417805,71.4866025 L277.417805,48.5126025 L257.563805,48.5126025 L257.563805,71.4866025 L277.417805,71.4866025 Z M253.852805,48.5126025 L233.998805,48.5126025 L233.998805,71.4866025 L253.852805,71.4866025 L253.852805,48.5126025 Z M230.288805,48.5126025 L210.434805,48.5126025 L210.434805,71.4866025 L230.288805,71.4866025 L230.288805,48.5126025 Z M206.723805,48.5126025 L186.869805,48.5126025 L186.869805,71.4866025 L206.723805,71.4866025 L206.723805,48.5126025 Z M183.159805,48.5126025 L163.305805,48.5126025 L163.305805,71.4866025 L183.159805,71.4866025 L183.159805,48.5126025 Z M159.595805,48.5126025 L139.740805,48.5126025 L139.740805,71.4866025 L159.595805,71.4866025 L159.595805,48.5126025 Z M136.030805,48.5126025 L116.176805,48.5126025 L116.176805,71.4866025 L136.030805,71.4866025 L136.030805,48.5126025 Z M112.466805,48.5126025 L92.6118048,48.5126025 L92.6118048,71.4866025 L112.466805,71.4866025 L112.466805,48.5126025 Z M88.9018048,48.5126025 L69.0478048,48.5126025 L69.0478048,71.4866025 L88.9018048,71.4866025 L88.9018048,48.5126025 Z M65.3378048,48.5126025 L44.6798048,48.5126025 L44.6798048,71.4866025 L65.3378048,71.4866025 L65.3378048,48.5126025 Z M40.9698048,48.5126025 L19.2800304,48.5129298 L19.2800304,71.4875206 L40.9698048,71.4866025 L40.9698048,48.5126025 Z M277.417805,44.8046025 L277.417805,21.3386025 L257.563805,21.3386025 L257.563805,44.8046025 L277.417805,44.8046025 Z M253.852805,21.3386025 L233.998805,21.3386025 L233.998805,44.8046025 L253.852805,44.8046025 L253.852805,21.3386025 Z M230.288805,21.3386025 L210.434805,21.3386025 L210.434805,44.8046025 L230.288805,44.8046025 L230.288805,21.3386025 Z M206.723805,21.3386025 L186.869805,21.3386025 L186.869805,44.8046025 L206.723805,44.8046025 L206.723805,21.3386025 Z M183.159805,21.3386025 L163.305805,21.3386025 L163.305805,44.8046025 L183.159805,44.8046025 L183.159805,21.3386025 Z M159.595805,21.3386025 L139.740805,21.3386025 L139.740805,44.8046025 L159.595805,44.8046025 L159.595805,21.3386025 Z M136.030805,21.3386025 L116.176805,21.3386025 L116.176805,44.8046025 L136.030805,44.8046025 L136.030805,21.3386025 Z M112.466805,21.3386025 L92.6118048,21.3386025 L92.6118048,44.8046025 L112.466805,44.8046025 L112.466805,21.3386025 Z M88.9018048,21.3386025 L69.0478048,21.3386025 L69.0478048,44.8046025 L88.9018048,44.8046025 L88.9018048,21.3386025 Z M65.3378048,21.3386025 L44.6798048,21.3386025 L44.6798048,44.8046025 L65.3378048,44.8046025 L65.3378048,21.3386025 Z M40.9698048,21.3386025 L19.2800304,21.3395584 L19.2800304,44.8051673 L40.9698048,44.8046025 L40.9698048,21.3386025 Z" id="形状结合" fill="#35C8D3" fill-rule="nonzero"></path>
                        <g id="编组-20" transform="translate(34.275610, 76.822410)" fill="#FFFFFF">
                            <path d="M131.775243,99.3323247 L226.329706,4.14142568 L333.112504,109.52688 C334.603854,110.998715 334.619528,113.400701 333.147511,114.891867 C331.75297,116.304551 329.523507,116.392967 328.02464,115.146905 L327.781862,114.92687 L226.382818,14.8542295 L132.383102,109.489775 L74.4548523,63.6393052 L19.1154069,107.387317 C17.4716322,108.686757 15.085555,108.407783 13.7859545,106.764211 C12.4863539,105.12064 12.7653622,102.734857 14.4091369,101.435417 L74.458566,53.9650228 L131.775243,99.3323247 Z" id="路径-354" fill-rule="nonzero"></path>
                            <ellipse id="椭圆形" cx="10.4339615" cy="109.068854" rx="10.4339615" ry="10.432673"></ellipse>
                            <ellipse id="椭圆形备份-19" cx="71.1406467" cy="57.8539138" rx="10.4339615" ry="10.432673"></ellipse>
                            <ellipse id="椭圆形备份-20" cx="129.950248" cy="103.378305" rx="10.4339615" ry="10.432673"></ellipse>
                            <ellipse id="椭圆形备份-21" cx="226.701528" cy="10.432673" rx="10.4339615" ry="10.432673"></ellipse>
                        </g>
                    </g>
                    <g id="柱状图" transform="translate(1003.232379, 296.810606)">
                        <rect id="蒙版" fill="#B3CFFF" x="0" y="0" width="387.15859" height="293.734848"></rect>
                        <polygon id="路径-24" fill="#93BBFE" points="252.401733 238.942614 171.87758 201.43821 160.42483 238.942614 97.9194449 194.156389 72.725923 238.942614 24.1010116 196.425606 46.0076352 171.957779 80.9384841 201.43821 100.783753 161.962334 164.773312 200.452474 185.208413 161.962334 323.91006 226.053923"></polygon>
                        <g id="编组-19" transform="translate(252.401733, 47.169100)">
                            <polygon id="路径-349" fill="#88D2F7" points="-2.48689958e-14 9.3265135 -2.48689958e-14 191.808222 41.1972161 209.406024 41.1972161 20.897425 29.5517628 7.95809395"></polygon>
                            <polygon id="路径-350" fill="#D3F6FF" points="74.1639623 9.3265135 74.1639623 189.497934 41.1972161 209.406024 41.1972161 16.0241698 44.5477564 3.38857457"></polygon>
                            <polygon id="路径-348" fill="#AFF0FF" points="4.54747351e-13 9.3265135 34.3897823 -1.94488203e-14 74.1639623 9.3265135 41.1972161 20.897425"></polygon>
                        </g>
                        <g id="编组-19备份-3" transform="translate(160.424830, 83.617950)">
                            <polygon id="路径-349" fill="#88D2F7" points="-2.48689958e-14 9.33899462 -2.48689958e-14 155.827371 43.1634472 172.957174 41.1972161 20.9253908 29.5517628 7.9687438"></polygon>
                            <polygon id="路径-350" fill="#D3F6FF" points="74.1639623 9.33899462 74.1639623 153.351817 41.1972161 173.286549 41.1972161 16.045614 44.5477564 3.3931093"></polygon>
                            <polygon id="路径-348" fill="#AFF0FF" points="4.54747351e-13 9.33899462 34.3897823 -1.94736589e-14 74.1639623 9.33899462 41.1972161 20.9253908"></polygon>
                        </g>
                        <g id="编组-19备份-4" transform="translate(72.725923, 128.642999)">
                            <polygon id="路径-349" fill="#88D2F7" points="-2.48689958e-14 9.26306783 -2.48689958e-14 110.821862 42.4208991 127.661256 41.1972161 20.7552657 29.5517628 7.90395726"></polygon>
                            <polygon id="路径-350" fill="#D3F6FF" points="74.1639623 9.26306783 74.1639623 107.888595 41.1972161 127.661256 41.1972161 15.9151618 44.5477564 3.36552305"></polygon>
                            <polygon id="路径-348" fill="#AFF0FF" points="4.54747351e-13 9.26306783 34.3897823 -1.93225575e-14 74.1639623 9.26306783 41.1972161 20.7552657"></polygon>
                        </g>
                    </g>
                    <g id="book-pro" transform="translate(222.769824, 121.492424)">
                        <g id="矩形" transform="translate(0.000000, 394.563380)">
                            <mask id="mask-2" fill="white">
                                <use xlink:href="#path-1"></use>
                            </mask>
                            <use id="蒙版" fill="#FBFCFF" xlink:href="#path-1"></use>
                            <rect fill="#D3D4EC" mask="url(#mask-2)" x="-12.0848747" y="201.515734" width="1035.84641" height="31.1871936"></rect>
                            <path d="M436.272048,194.745401 C469.696563,195.05564 533.595294,194.902143 565.778977,194.745401 C575.759911,194.861942 582.744134,204.271311 565.778977,205.160992 C533.065899,205.078998 469.729085,205.373566 436.272048,205.160992 C428.284482,204.645551 420.947028,197.953811 436.272048,194.745401 Z" id="路径-257" fill="#D3D4EC" mask="url(#mask-2)"></path>
                        </g>
                        <path d="M426.308246,0 L176.240326,0 C161.451016,0.848816276 154.056361,6.35783744 154.056361,16.5270635 C154.056361,26.6962895 154.056361,164.145015 154.056361,428.873239 L843.030643,428.873239 L843.030643,16.5270635 C837.854647,5.50902116 830.988082,0 822.430949,0 C813.873817,0 681.832916,0 426.308246,0 Z" id="路径-254备份" fill="#CDCDE0"></path>
                        <path d="M426.308246,4.28873239 L176.240326,4.28873239 C164.454786,5.12906051 158.562017,10.5829915 158.562017,20.6505252 C158.562017,30.718059 157.060132,166.792297 154.056361,428.873239 L843.030643,428.873239 L837.944,20.6505252 C836.159099,9.74266334 830.988082,4.28873239 822.430949,4.28873239 C813.873817,4.28873239 681.832916,4.28873239 426.308246,4.28873239 Z" id="路径-254" fill="#FBFCFF"></path>
                        <path d="M465.857081,422.197382 C467.199099,422.197382 468.265361,421.937284 469.037481,421.451767 C469.938288,420.862211 470.397883,419.960537 470.397883,418.746745 C470.397883,417.91443 470.14051,417.255514 469.66253,416.735318 C469.184551,416.215121 468.522734,415.868323 467.658695,415.729604 C468.320512,415.521525 468.853643,415.192067 469.258087,414.74123 C469.644147,414.238374 469.846369,413.631478 469.846369,412.937882 C469.846369,411.966848 469.497076,411.203893 468.798491,410.649017 C468.081522,410.09414 467.10718,409.816702 465.893849,409.816702 L460.029412,409.816702 L460.029412,422.197382 L465.857081,422.197382 Z M465.526172,415.226747 L461.536885,415.226747 L461.536885,411.013154 L465.544556,411.013154 C466.463747,411.013154 467.162332,411.169213 467.640311,411.516011 C468.11829,411.862809 468.35728,412.383006 468.35728,413.076601 C468.35728,413.787537 468.099906,414.325073 467.621927,414.689211 C467.143948,415.036009 466.445363,415.226747 465.526172,415.226747 Z M465.728394,421.00093 L461.536885,421.00093 L461.536885,416.40586 L465.728394,416.40586 C466.739504,416.40586 467.511624,416.579259 468.044755,416.960736 C468.596269,417.342214 468.89041,417.93177 468.89041,418.729405 C468.89041,419.52704 468.559502,420.133936 467.916068,420.515413 C467.364554,420.827531 466.647585,421.00093 465.728394,421.00093 Z M476.538077,422.440141 C477.953631,422.440141 479.093427,421.971964 479.957466,421.03561 C480.74797,420.168615 481.152414,419.058863 481.152414,417.723691 C481.152414,416.37118 480.74797,415.261427 479.939082,414.377093 C479.093427,413.440739 477.953631,412.989902 476.538077,412.989902 C475.104139,412.989902 473.982727,413.440739 473.137071,414.377093 C472.328183,415.261427 471.92374,416.37118 471.92374,417.723691 C471.92374,419.058863 472.328183,420.168615 473.137071,421.03561 C473.982727,421.971964 475.104139,422.440141 476.538077,422.440141 Z M476.538077,421.278368 C475.526967,421.278368 474.736463,420.914231 474.184949,420.185955 C473.670202,419.52704 473.431212,418.712065 473.431212,417.723691 C473.431212,416.717978 473.670202,415.903003 474.184949,415.244087 C474.736463,414.515812 475.526967,414.151674 476.538077,414.151674 C477.530803,414.151674 478.321307,414.515812 478.909589,415.244087 C479.405952,415.903003 479.663325,416.717978 479.663325,417.723691 C479.663325,418.694725 479.405952,419.52704 478.909589,420.185955 C478.321307,420.914231 477.530803,421.278368 476.538077,421.278368 Z M487.310992,422.440141 C488.726546,422.440141 489.866342,421.971964 490.730381,421.03561 C491.520885,420.168615 491.925329,419.058863 491.925329,417.723691 C491.925329,416.37118 491.520885,415.261427 490.711997,414.377093 C489.866342,413.440739 488.726546,412.989902 487.310992,412.989902 C485.877054,412.989902 484.755642,413.440739 483.909986,414.377093 C483.101098,415.261427 482.696655,416.37118 482.696655,417.723691 C482.696655,419.058863 483.101098,420.168615 483.909986,421.03561 C484.755642,421.971964 485.877054,422.440141 487.310992,422.440141 Z M487.310992,421.278368 C486.299882,421.278368 485.509378,420.914231 484.957864,420.185955 C484.443117,419.52704 484.204127,418.712065 484.204127,417.723691 C484.204127,416.717978 484.443117,415.903003 484.957864,415.244087 C485.509378,414.515812 486.299882,414.151674 487.310992,414.151674 C488.303718,414.151674 489.094222,414.515812 489.682504,415.244087 C490.178867,415.903003 490.43624,416.717978 490.43624,417.723691 C490.43624,418.694725 490.178867,419.52704 489.682504,420.185955 C489.094222,420.914231 488.303718,421.278368 487.310992,421.278368 Z M495.307951,422.197382 L495.307951,419.024183 L496.815424,417.741031 L500.528954,422.197382 L502.422487,422.197382 L497.826533,416.839357 L502.018043,413.23266 L500.069359,413.23266 L495.307951,417.394233 L495.307951,409.573944 L493.837246,409.573944 L493.837246,422.197382 L495.307951,422.197382 Z M511.375404,422.197382 L511.375404,417.134135 L515.217621,417.134135 C518.232567,417.134135 519.758424,415.903003 519.758424,413.458079 C519.758424,411.030494 518.250951,409.816702 515.236005,409.816702 L509.867932,409.816702 L509.867932,422.197382 L511.375404,422.197382 Z M515.144086,415.903003 L511.375404,415.903003 L511.375404,411.047834 L515.144086,411.047834 C516.191964,411.047834 516.964084,411.238573 517.478831,411.65473 C517.993577,412.018868 518.250951,412.625764 518.250951,413.458079 C518.250951,414.290393 517.993577,414.897289 517.497214,415.296107 C516.982468,415.694924 516.210347,415.903003 515.144086,415.903003 Z M522.938823,422.197382 L522.938823,417.446253 C522.938823,416.613938 523.177813,415.903003 523.69256,415.313447 C524.188923,414.689211 524.813972,414.394433 525.549325,414.394433 C526.00892,414.394433 526.486899,414.446452 526.964879,414.585171 L526.964879,413.19798 C526.615586,413.059261 526.174375,412.989902 525.659628,412.989902 C524.997811,412.989902 524.427912,413.18064 523.931549,413.562118 C523.527105,413.856896 523.196197,414.273053 522.938823,414.79325 L522.938823,413.23266 L521.486502,413.23266 L521.486502,422.197382 L522.938823,422.197382 Z M532.443255,422.440141 C533.858809,422.440141 534.998605,421.971964 535.862645,421.03561 C536.653149,420.168615 537.057593,419.058863 537.057593,417.723691 C537.057593,416.37118 536.653149,415.261427 535.844261,414.377093 C534.998605,413.440739 533.858809,412.989902 532.443255,412.989902 C531.009318,412.989902 529.887905,413.440739 529.04225,414.377093 C528.233362,415.261427 527.828918,416.37118 527.828918,417.723691 C527.828918,419.058863 528.233362,420.168615 529.04225,421.03561 C529.887905,421.971964 531.009318,422.440141 532.443255,422.440141 Z M532.443255,421.278368 C531.432145,421.278368 530.641641,420.914231 530.090127,420.185955 C529.57538,419.52704 529.336391,418.712065 529.336391,417.723691 C529.336391,416.717978 529.57538,415.903003 530.090127,415.244087 C530.641641,414.515812 531.432145,414.151674 532.443255,414.151674 C533.435981,414.151674 534.226485,414.515812 534.814767,415.244087 C535.31113,415.903003 535.568504,416.717978 535.568504,417.723691 C535.568504,418.694725 535.31113,419.52704 534.814767,420.185955 C534.226485,420.914231 533.435981,421.278368 532.443255,421.278368 Z" id="BookPro" fill="#CDCDE0" fill-rule="nonzero"></path>
                        <g id="形状结合" transform="translate(181.872093, 34.309859)">
                            <g id="蒙版">
                                <mask id="mask-4" fill="white">
                                    <use xlink:href="#path-3"></use>
                                </mask>
                                <use fill="#382346" xlink:href="#path-3"></use>
                            </g>
                            <path d="M580.271095,85.8818361 L580.359246,86.2237059 L588.974146,124.211552 C589.687954,127.359125 587.718416,130.490168 584.575058,131.204934 C581.543964,131.894172 578.528219,130.084962 577.676647,127.132619 L577.591043,126.799946 L573.088339,106.951842 C542.327729,173.42738 513.562938,227.828687 486.770602,270.177492 C465.184655,304.296915 446.255828,303.224129 430.773797,271.669736 L429.357419,268.706696 C425.414441,260.314426 422.768147,253.46296 415.233491,232.035814 L406.488746,207.064984 C397.238048,180.859868 390.366018,163.070993 381.805552,144.042477 C373.000751,124.470845 364.634864,113.033156 356.999907,108.816669 C351.147146,105.58442 345.438094,106.635722 338.275291,112.413196 C330.821731,118.425193 322.679552,128.995003 312.772195,145.063489 L311.134952,147.741713 C307.603581,153.564838 303.881806,159.994055 299.154092,168.3815 L282.807173,197.524659 L280.942583,200.795457 C276.658295,208.283269 272.820793,214.791631 269.048805,220.927218 C245.657357,258.976182 220.580067,271.590477 194.162234,260.642518 C174.468199,252.481004 156.376554,232.960866 133.018341,198.816529 L132.139926,197.529255 C121.895304,182.478926 112.901151,180.003954 101.987154,188.180448 C88.9373623,197.957026 74.1421875,222.186882 58.2460907,260.587064 C56.8060739,264.065711 52.8224863,265.716781 49.3484986,264.274833 C45.874511,262.832885 44.2256519,258.843954 45.6656687,255.365308 L46.8763393,252.462176 C63.198758,213.612439 78.6499425,188.633224 93.8288804,177.261543 C111.328191,164.151496 128.718488,168.744137 142.930632,189.176969 L145.077532,192.311152 C166.567792,223.559508 183.144157,241.31808 199.369977,248.042312 C218.659599,256.036231 237.209036,246.705554 257.451681,213.778491 L259.03941,211.179879 C262.494591,205.490434 266.063249,199.392289 270.043893,192.409414 L287.297507,161.673365 C292.311964,152.777088 296.223811,146.030428 299.991998,139.845467 L300.482765,139.041787 C311.455408,121.114382 320.581026,109.174766 329.732337,101.793374 C352.791349,83.194114 374.225321,94.7179147 393.634692,137.146349 L394.222235,138.44152 C403.694867,159.497631 411.102633,178.96004 421.702977,209.280317 L426.78967,223.834077 C435.521315,248.738154 438.028864,255.24078 442.281101,264.171157 L442.58426,264.80584 C448.108773,276.337002 452.773501,281.616053 456.186311,281.87393 C460.104824,282.170019 466.595996,276.584487 475.266423,262.879738 C501.899149,220.783219 530.61722,166.409513 561.396765,99.7808187 L538.950522,109.716378 C536.107597,110.974681 532.801419,109.777928 531.400428,107.04381 L531.252723,106.733739 C529.996105,103.887001 531.191255,100.576388 533.921711,99.1735181 L534.231367,99.0256149 L572.308116,82.1725215 C575.558638,80.7338129 579.296294,82.5153631 580.271095,85.8818361 Z" fill="#71FFD2" fill-rule="nonzero"></path>
                        </g>
                        <polygon id="路径-256" fill="#CDCDE0" points="179.457318 448.172535 820.080485 448.172535 881.544734 518.93662 115.542271 518.93662"></polygon>
                        <g id="路径-258" transform="translate(346.626813, 529.658451)">
                            <mask id="mask-6" fill="white">
                                <use xlink:href="#path-5"></use>
                            </mask>
                            <use id="蒙版" fill="#CDCDE0" xlink:href="#path-5"></use>
                            <polygon fill="#ACACAC" mask="url(#mask-6)" points="-1.24475677 40.7138023 20.2990931 3.37921379 280.838544 3.37921379 307.163861 42.8386258 284.780676 -3.07490168 14.0979875 -3.07490168"></polygon>
                        </g>
                        <polygon id="路径-259" fill="#FBFCFF" points="185.740644 454.605634 814.970969 454.605634 866.567032 514.647887 130.519973 514.647887"></polygon>
                        <line x1="171.846148" y1="464.991453" x2="827.911922" y2="464.991453" id="路径-19" stroke="#CDCDE0"></line>
                        <line x1="160.400953" y1="476.269231" x2="836.686052" y2="476.269231" id="路径-19备份" stroke="#CDCDE0"></line>
                        <line x1="153.464695" y1="486.679487" x2="843.622309" y2="486.679487" id="路径-19备份-2" stroke="#CDCDE0"></line>
                        <line x1="136.124052" y1="500.559829" x2="857.494824" y2="500.559829" id="路径-19备份-3" stroke="#CDCDE0"></line>
                    </g>
                    <ellipse id="椭圆形" fill="#6871FF" cx="1151.48954" cy="146.867424" rx="14.5952643" ry="14.6098485"></ellipse>
                    <ellipse id="椭圆形" fill="#6871FF" cx="1121.53084" cy="176.856061" rx="6.14537445" ry="6.15151515"></ellipse>
                    <g id="消息" transform="translate(1024.741189, 0.000000)">
                        <path d="M0.0713033867,70.8879316 L0.0713033867,34.9737059 C-0.591293255,24.6137559 3.36406372,19.4337809 11.9373743,19.4337809 C20.5106849,19.4337809 65.5970646,19.4337809 147.196514,19.4337809 C154.703822,19.4337809 158.457477,23.1548714 158.457477,30.5970522 C158.457477,38.039233 158.457477,61.672692 158.457477,101.497429 C160.157388,107.424614 154.840556,110.388207 142.506979,110.388207 C130.173403,110.388207 91.5149931,110.388207 26.5317493,110.388207 L0.0713033867,139.893469 L0.0713033867,70.8879316 Z" id="路径-261" fill="#85D5A0"></path>
                        <ellipse id="椭圆形" fill="#F06D6D" cx="156.630282" cy="24.9736853" rx="24.5277974" ry="24.8702168"></ellipse>
                        <path d="M158.843298,38.1468958 L158.843298,12.2655211 L156.633304,12.2655211 C155.804556,13.2442285 154.837684,14.1141907 153.663625,14.911656 C152.489566,15.6366245 151.315507,16.1441024 150.21051,16.4703382 L150.21051,19.442709 C152.524097,18.7177405 154.457841,17.557791 156.011743,15.8903635 L156.011743,38.1468958 L158.843298,38.1468958 Z" id="1" fill="#FFFFFF" fill-rule="nonzero"></path>
                        <ellipse id="椭圆形" fill="#FFFFFF" cx="39.6515556" cy="68.6270028" rx="9.43376824" ry="9.56546798"></ellipse>
                        <ellipse id="椭圆形备份-10" fill="#FFFFFF" cx="77.3866286" cy="68.6270028" rx="9.43376824" ry="9.56546798"></ellipse>
                        <ellipse id="椭圆形备份-11" fill="#FFFFFF" cx="115.121702" cy="68.6270028" rx="9.43376824" ry="9.56546798"></ellipse>
                    </g>
                    <g id="路径-21" transform="translate(6.145374, 462.901515)">
                        <mask id="mask-8" fill="white">
                            <use xlink:href="#path-7"></use>
                        </mask>
                        <use id="蒙版" fill="#F4EDFF" xlink:href="#path-7"></use>
                        <path d="M8.56216613,96.1077901 C11.4425105,79.9706492 20.1138597,68.3965913 34.5762139,61.3856164 C37.719483,30.0617033 52.1351655,12.9613255 77.8232615,10.084483 C103.511357,7.20764061 121.734043,18.3339682 132.49132,43.4634658 L140.951748,17.3891889 L65.7169552,-12.1606341 L5.10500649,40.8465037 L-15.0430339,81.1894617 L-15.5390183,96.1077901 L8.56216613,96.1077901 Z" fill="#F0E7FF" mask="url(#mask-8)"></path>
                    </g>
                    <g id="编组-19备份" transform="translate(218.160793, 499.810606)">
                        <polygon id="路径-349" fill="#FF7829" points="-2.48689958e-14 6.92103127 -2.48689958e-14 142.337295 32.898867 154.941011 30.6891235 15.5075883 22.014053 5.90555271"></polygon>
                        <polygon id="路径-350" fill="#FFBC17" points="55.2471067 6.92103127 55.2471067 140.622874 30.6891235 155.396295 30.6891235 11.8912368 33.1850481 2.51459783"></polygon>
                        <polygon id="路径-348" fill="#F98B0C" points="4.54747351e-13 6.92103127 25.6180483 -1.46616837e-14 55.2471067 6.92103127 30.6891235 15.5075883"></polygon>
                    </g>
                    <g id="编组-19备份-2" transform="translate(168.997797, 562.863636)">
                        <polygon id="路径-349" fill="#FF7829" points="0 4.53388394 0 98.2374003 22.9297148 107.273791 21.1247247 10.4754937 15.1532776 3.8312068"></polygon>
                        <polygon id="路径-350" fill="#FFBC17" points="38.4085903 5.00750274 38.4085903 98.8232028 21.1247247 109.189394 21.1247247 8.49498878 22.881352 1.9156034"></polygon>
                        <polygon id="路径-348" fill="#F98B0C" points="0 5.12959879 17.810039 -1.02083856e-14 38.4085903 5.12959879 21.335524 11.4936204"></polygon>
                    </g>
                    <ellipse id="椭圆形" fill="#FBFCFF" cx="1267.48348" cy="642.833333" rx="21.5088106" ry="21.530303"></ellipse>
                    <ellipse id="椭圆形" fill="#FBFCFF" cx="1238.29295" cy="681.280303" rx="12.2907489" ry="12.3030303"></ellipse>
                    <g id="文件页" transform="translate(110.616740, 123.030303)">
                        <polygon id="路径-366" fill="#4F9BFF" points="93.8623555 17.8434466 0 35.3412762 81.2432379 210.384911 174.264718 194.764149"></polygon>
                        <polygon id="路径-362" fill="#FFC78E" points="7.6599876 13.3207271 78.5504071 219.916667 206.819665 200.020982 139.113601 6.40533981"></polygon>
                        <path d="M61.1267011,70.4191324 C65.963916,111.488516 73.8684461,139.631755 84.8402914,154.848851 C101.298059,177.674494 126.32527,196.246121 174.264718,187.889968 L67.4102732,73.5949855 L61.1267011,70.4191324 Z" id="路径-51" fill="#FFAC57"></path>
                        <polygon id="路径-363" fill="#A2FED2" points="19.3031688 4.4271986 30.6332843 4.27022654 36.461541 18.2051705 25.5132299 19.2160194"></polygon>
                        <polygon id="路径-363备份" fill="#82D7FF" points="34.3167444 6.06835689e-14 46.2740045 6.06835689e-14 53.6199132 17.0809061 42.3419945 17.0809061"></polygon>
                        <g id="路径-16" transform="translate(57.449199, 24.553803)">
                            <mask id="mask-10" fill="white">
                                <use xlink:href="#path-9"></use>
                            </mask>
                            <use id="蒙版" fill="#FFFFFF" xlink:href="#path-9"></use>
                            <path d="M70.0560752,9.4670605 C82.3737501,11.1538499 91.8280876,16.2265222 98.4190875,24.6850772 C103.234597,30.8650573 78.8914175,73.8795877 83.9119843,83.6729034 C110.817751,17.725451 134.119022,96.2111791 145.234073,131.309466 L145.420235,97.3626916 L109.938011,-12.8106796 L70.0560752,9.4670605 Z" fill="#F6F7FF" mask="url(#mask-10)"></path>
                            <path d="M23.795842,52.6528806 L25.5659498,52.2273166 C38.6428473,49.1351287 47.2463882,48.2833467 51.5217464,49.7199929 C56.4990338,51.392508 55.9379659,55.8096106 50.5017583,62.2442458 L50.169741,62.6327392 C42.2816386,71.7593282 37.6974901,80.3865893 38.0582634,85.0678258 C38.4001854,89.5044558 43.7361298,89.7866972 54.3027432,84.4675769 L60.3507821,81.4461674 C71.2803711,76.0385819 77.0441214,73.5412841 81.2863901,72.5074003 L81.555142,72.4433812 C88.2741903,70.8802253 89.8225075,74.1696234 85.6839079,81.7873317 L85.4567539,82.1995608 C80.0196451,91.93221 84.4925603,99.4030649 99.3687055,104.959828 C99.8169613,105.127268 100.044501,105.6261 99.8769292,106.074002 C99.7093576,106.521904 99.2101309,106.749264 98.7618751,106.581824 C83.2209675,100.776749 78.0431078,92.4045203 83.7015095,81.7987474 L84.3684381,80.5815414 C87.6693214,74.4522956 86.8298396,72.9941901 81.948123,74.1298992 L81.4172743,74.2595972 C76.735442,75.4566541 69.8803647,78.5773181 55.8971174,85.6042913 L55.0824479,86.0140417 C43.5836046,91.8024365 36.8115537,91.4442333 36.3303835,85.2007797 C35.9323633,80.0362445 40.4845821,71.3405179 48.3302516,62.116605 L48.8581572,61.5009279 C53.9275066,55.6356557 54.3966338,52.5129634 50.9693487,51.3612947 C46.9306045,50.0041577 37.9548028,50.9771488 24.2073468,54.3349817 C23.7424804,54.4485259 23.2735132,54.1640205 23.1598792,53.6995211 C23.0462453,53.2350217 23.3309755,52.7664248 23.795842,52.6528806 Z" id="路径-22" fill="#A7A7A7" fill-rule="nonzero" mask="url(#mask-10)"></path>
                        </g>
                        <path d="M129.790603,154.106596 C105.737092,149.23707 99.8816487,146.229964 80.7458297,135.717788 C104.682266,173.054284 135.855229,190.144504 174.264718,186.988447 C150.074796,177.396748 143.313241,170.505476 129.790603,154.106596 Z" id="路径-365" fill="#D1D3FB"></path>
                    </g>
                    <ellipse id="椭圆形" fill="#6871FF" cx="119.834802" cy="232.219697" rx="9.21806167" ry="9.22727273"></ellipse>
                    <ellipse id="椭圆形" fill="#6871FF" cx="89.8761013" cy="212.996212" rx="14.5952643" ry="14.6098485"></ellipse>
                    <g id="笔" transform="translate(251.960352, 86.121212)">
                        <mask id="mask-12" fill="white">
                            <use xlink:href="#path-11"></use>
                        </mask>
                        <use id="蒙版" fill="#FFFFFF" xlink:href="#path-11"></use>
                        <path d="M27.1962002,122.983701 L138.416009,18.9555499 C146.834463,7.87923478 141.921047,0.873984201 123.675762,-2.06020187 C128.16062,-5.55695065 130.373395,-8.58855116 134.904609,-11.0588014 C141.526574,-6.62966699 150.184011,-1.24262838 160.87692,5.10231442 L41.4039567,142.733247 L27.1962002,122.983701 Z" id="路径-14" fill="#D1D3FB" mask="url(#mask-12)"></path>
                        <path d="M106.03532,10.3512009 C121.421465,14.9163328 130.545406,25.2325067 133.016226,40.8728143 L133.146647,41.7471951 L126.723083,42.669488 C124.855269,29.3702209 117.742461,20.9175852 104.995908,16.8870398 L104.208465,16.6457934 L106.03532,10.3512009 Z" id="路径-403" fill="#B5B7D8" fill-rule="nonzero" mask="url(#mask-12)"></path>
                        <path d="M10.3734008,101.83554 C24.1734444,104.492048 33.2489507,114.356418 37.5999196,131.428649 L-6.51155009,146.601823 L10.3734008,101.83554 Z" id="路径-404" fill="#B5B7D8" mask="url(#mask-12)"></path>
                        <path d="M2.15364672,120.728378 C11.4420304,126.005513 17.4293351,132.500866 20.1155606,140.214435 L-8.65067544,150.369256 L2.15364672,120.728378 Z" id="路径-405" fill="#3D3D3D" mask="url(#mask-12)"></path>
                    </g>
                    <g id="书本" transform="translate(1044.713656, 198.386364)">
                        <g id="路径-23" transform="translate(0.000000, 39.742935)">
                            <mask id="mask-14" fill="white">
                                <use xlink:href="#path-13"></use>
                            </mask>
                            <use id="蒙版" fill="#FFC78E" xlink:href="#path-13"></use>
                            <path d="M10.2859022,60.6551076 C50.7958453,61.2802132 78.554958,69.2850876 93.56324,84.669731 C141.178623,75.1012572 176.178766,80.1857407 198.56367,99.9231814 L241.239593,17.1747883 C241.58614,17.1747883 236.917471,17.1747883 227.233588,17.1747883 C217.549704,17.1747883 145.948502,28.5325281 12.4299838,51.2480075 L10.2859022,60.6551076 Z" fill="#FFAF5E" mask="url(#mask-14)"></path>
                        </g>
                        <path d="M195.553671,39.742935 C213.255798,40.6142169 226.609998,44.8347213 235.616271,52.4044483 L197.738793,133.052434 C164.895009,115.072013 131.899057,112.075149 98.7509373,124.061842 L186.931873,44.3931186 L195.553671,39.742935 Z" id="路径-393" fill="#DFE1FF"></path>
                        <path d="M135.337255,41.3112849 C170.184758,26.2323394 197.836188,25.4404178 218.291546,38.9355203 L185.951171,115.173725 C153.515161,103.437697 124.448416,106.517345 98.7509373,124.412666 C112.598315,90.4045921 124.793754,62.7041317 135.337255,41.3112849 Z" id="路径-392" fill="#F1F2FF"></path>
                        <path d="M84.8662951,26.0272175 C69.0938188,15.5515832 55.2494286,12.9326747 43.3331245,18.1704918 L0,94.5717066 C44.7781656,91.8595976 76.7787053,102.382569 96.001619,126.14062 L116.075663,55.1981873 L84.8662951,26.0272175 Z" id="路径-396" fill="#D6D8FE"></path>
                        <path d="M140.330279,39.648799 C127.304086,16.8755116 107.178477,3.65924528 79.9534514,0 C49.7507849,49.1248847 34.6494517,73.6873271 34.6494517,73.6873271 C70.2848274,74.5570078 91.3834536,91.4654541 97.9453303,124.412666 C114.180972,91.6613945 128.309288,63.4067722 140.330279,39.648799 Z" id="路径-395" fill="#E7E9FF"></path>
                    </g>
                </g>
                <g id="工作女备份" transform="translate(486.000000, 0.000000)">
                    <path d="M161.00726,2.67865807 C199.723433,-6.41150138 241.289688,4.88385701 262.886878,79.7487714 C284.484068,154.613686 293.192324,201.959315 287.833097,232.020189 L101.716592,234.321725 C103.354675,226.210242 104.173717,219.511188 104.173717,214.224564 C100.07978,224.321308 96.9248664,231.32562 94.7089757,235.2375 L82.6778865,234.321725 C98.2082841,207.979517 105.373561,171.266452 104.173717,124.18253 C102.373951,53.5566469 122.291087,11.7688175 161.00726,2.67865807 Z" id="路径-147" fill="#251A6B"></path>
                    <path d="M99.5196782,138.375 C98.1782284,169.383053 94.8186665,190.908053 89.4409925,202.95 C87.6934563,202.824048 85.949445,202.656644 84.2089585,202.447787 C89.3125317,194.942496 94.416105,173.5849 99.5196782,138.375 Z" id="路径-148" fill="#251A6B"></path>
                    <path d="M277.124027,127.6125 C283.033807,151.339769 287.020191,172.864769 289.083178,192.1875 C291.097945,191.428305 292.725492,190.716677 293.965819,190.052613 C291.306806,170.114292 285.692876,149.300921 277.124027,127.6125 Z" id="路径-149" fill="#251A6B"></path>
                    <g id="路径-260" transform="translate(160.762557, 169.125000)">
                        <mask id="mask-16" fill="white">
                            <use xlink:href="#path-15"></use>
                        </mask>
                        <use id="蒙版" fill="#FFA9A9" xlink:href="#path-15"></use>
                        <path d="M15.5576668,13.2356752 C28.1519685,14.5744148 37.2272742,10.162523 42.7835837,2.62900812e-13 L39.1812619,-7.6875 L4.40728799,0.20910634 L15.5576668,13.2356752 Z" fill="#FF857A" mask="url(#mask-16)"></path>
                        <path d="M9.75248142,29.3443253 C12.8171808,36.4325338 19.9188729,39.976638 31.0575577,39.976638 C47.7655849,39.976638 55.8779225,33.5429192 55.8779225,27.8581556 L56.4005903,37.2545648 L34.4491194,46.6892568 L7.90059509,43.5992123 L6.02211283,29.3443253 L9.75248142,29.3443253 Z" id="路径-151" fill="#FF857A" mask="url(#mask-16)"></path>
                    </g>
                    <g id="编组-5" transform="translate(85.740030, 192.187500)">
                        <g id="路径-265">
                            <mask id="mask-18" fill="white">
                                <use xlink:href="#path-17"></use>
                            </mask>
                            <use id="蒙版" fill="#FF4746" xlink:href="#path-17"></use>
                            <path d="M13.2836667,65.8676752 L88.0386733,63.0357366 C98.1060321,62.740466 104.214801,67.3251429 106.364981,76.7897673 C108.51516,86.2543916 114.917959,118.209097 125.573375,172.653884 L13.2836667,65.8676752 Z" id="路径-136" fill="#DA3912" mask="url(#mask-18)"></path>
                        </g>
                        <path d="M158.949773,93.7074493 C177.401144,70.5605688 198.982641,60.0943038 223.616169,62.3937391 C224.13484,62.4421549 224.516447,62.9060791 224.468511,63.4299428 C224.420575,63.9538065 223.961249,64.3392332 223.442577,64.2908174 C199.474682,62.0535161 178.492866,72.2289569 160.419032,94.9022246 C160.092374,95.3120108 159.498661,95.3767486 159.092936,95.0468205 C158.687211,94.7168924 158.623115,94.1172355 158.949773,93.7074493 Z" id="路径-263" fill="#FFD3D3" fill-rule="nonzero"></path>
                        <path d="M149.87481,77.8266577 C150.303165,77.5997885 150.825293,77.7384812 151.091376,78.1324963 L151.148075,78.2279051 L164.295941,103.552093 C164.53784,104.018016 164.359976,104.593783 163.898671,104.838103 C163.470315,105.064973 162.948187,104.92628 162.682105,104.532265 L162.625406,104.436856 L149.477539,79.1126684 C149.23564,78.646745 149.413504,78.0709783 149.87481,77.8266577 Z" id="路径-264" fill="#2B2B2B" fill-rule="nonzero"></path>
                    </g>
                    <path d="M286.090764,272.016197 C302.078251,265.694055 327.192045,265.694055 320.378812,274.277833 C313.565579,282.86161 256.51974,303.66866 250.469569,299.188011 C244.419397,294.707363 270.103278,278.338339 286.090764,272.016197 Z" id="路径-137" fill="#E32625"></path>
                    <g id="电脑" transform="translate(0.000000, 258.300000)">
                        <path d="M0,8.93017259 C2.24080385,2.9767242 6.38464567,0 12.4315255,0 C18.4784053,0 72.6408826,0 174.918958,0 C181.601176,0.877013399 185.732229,4.08249686 187.312115,9.61645039 C188.892001,15.1504039 196.973477,47.6416596 211.556541,107.090217 L197.632342,107.090217 L0,8.93017259 Z" id="路径-131" fill="#2B2B2B"></path>
                        <path d="M5.22149285,35.8664691 L1.92141962,21.8274776 C-2.04530157,9.68234759 0.129872331,3.60978261 8.44694131,3.60978261 C16.7640103,3.60978261 71.6872894,3.60978261 173.216779,3.60978261 C179.351488,3.87483525 183.281173,6.9773809 185.005834,12.9174196 C186.730496,18.8574582 194.378705,50.6494778 207.950464,108.293478 L39.8042894,108.293478 L24.8120145,104.068841 L5.22149285,35.8664691 Z" id="路径-130" fill="#585858"></path>
                        <path d="M205.546412,101.073913 C237.004339,101.073913 255.184092,101.073913 260.085672,101.073913 C264.987251,101.073913 269.645989,104.282609 274.061883,110.7 L207.607155,110.7 L205.546412,101.073913 Z" id="路径-132" fill="#848282"></path>
                        <path d="M205.551206,101.073913 L22.8384903,101.073913 C23.6905231,107.053275 26.9788749,110.188966 32.7035456,110.480986 C38.4282163,110.773005 96.8438557,110.773005 207.950464,110.480986 L205.551206,101.073913 Z" id="路径-133" fill="#4D4B4B"></path>
                        <path d="M218.030993,104.683696 C216.050278,104.683696 215.580494,108.293478 218.030993,108.293478 C220.481493,108.293478 223.97038,108.293478 225.871246,108.293478 C227.772112,108.293478 227.461165,104.683696 225.871246,104.683696 C224.281327,104.683696 220.011709,104.683696 218.030993,104.683696 Z" id="路径-134" fill="#4D4B4B"></path>
                        <path d="M233.657329,104.683696 C231.676613,104.683696 231.206829,108.293478 233.657329,108.293478 C236.107828,108.293478 239.596716,108.293478 241.497581,108.293478 C243.398447,108.293478 243.0875,104.683696 241.497581,104.683696 C239.907663,104.683696 235.638044,104.683696 233.657329,104.683696 Z" id="路径-134备份" fill="#4D4B4B"></path>
                    </g>
                    <g id="路径-323" transform="translate(202.101500, 265.987500)">
                        <mask id="mask-20" fill="white">
                            <use xlink:href="#path-19"></use>
                        </mask>
                        <use id="蒙版" fill="#FFA9A9" xlink:href="#path-19"></use>
                        <path d="M61.8480548,16.0522682 C77.0269657,42.1445699 56.4109474,58.8656731 -1.63424829e-13,66.2155777 L0.50871408,56.6226439 L51.1387496,41.1339229 L51.1387496,19.0198861 L61.8480548,16.0522682 Z" fill="#FF857A" mask="url(#mask-20)"></path>
                    </g>
                    <path d="M113.449124,373.145246 C49.6345245,362.031118 14.4182501,373.266178 7.80030099,406.850426 C1.1823519,440.434674 14.1632577,501.105365 46.7430184,588.8625 L114.830398,552.629739 L113.449124,373.145246 Z" id="路径-139" fill="#091B57"></path>
                    <path d="M55.2517421,605.79173 C53.9376244,616.663168 62.3506425,617.908355 80.4907966,609.527289 C107.701028,596.95569 145.506393,563.130161 112.998595,561.259957 C91.3267293,560.013154 72.0777784,574.857079 55.2517421,605.79173 Z" id="路径-145" fill="#020B2E"></path>
                    <g id="路径-262" transform="translate(58.180735, 555.037500)">
                        <mask id="mask-22" fill="white">
                            <use xlink:href="#path-21"></use>
                        </mask>
                        <use id="蒙版" fill="#FFA39B" xlink:href="#path-21"></use>
                        <path d="M14.3308337,50.8763462 C28.5441783,34.4038892 41.4051829,26.1676607 52.9138474,26.1676607 L49.2890726,2.00196777 L3.30711546,24.0790337 L14.3308337,50.8763462 Z" fill="#FF857A" mask="url(#mask-22)"></path>
                    </g>
                    <path d="M39.8078713,571.128677 C42.7581856,578.801936 47.9507224,592.40071 55.3854818,611.925 C80.3974697,580.336742 102.764228,566.066774 122.485758,569.115096 L100.180253,536.5875 C68.7281876,537.761823 48.6040605,549.275548 39.8078713,571.128677 Z" id="路径-141" fill="#A8BDFF"></path>
                    <path d="M91.0657276,536.775713 C91.7240616,536.410182 92.5542775,536.594179 92.9854313,537.179466 L93.0614568,537.293874 L111.573084,568.29969 C111.975815,568.974239 111.735253,569.83591 111.035773,570.224287 C110.377439,570.589818 109.547223,570.405821 109.116069,569.820534 L109.040044,569.706126 L90.5284159,538.70031 C90.125685,538.025761 90.3662476,537.16409 91.0657276,536.775713 Z" id="路径-254" fill="#2D61FF" fill-rule="nonzero"></path>
                    <path d="M198.249662,558.1125 C205.426876,558.915296 205.426876,562.724822 198.249662,569.541078 C187.483841,579.765462 148.372509,623.589048 145.585234,603.763834 C143.727051,590.547024 161.28186,575.329913 198.249662,558.1125 Z" id="路径-143" fill="#020B2E"></path>
                    <g id="路径-261" transform="translate(148.513981, 555.037500)">
                        <mask id="mask-24" fill="white">
                            <use xlink:href="#path-23"></use>
                        </mask>
                        <use id="蒙版" fill="#FFA39B" xlink:href="#path-23"></use>
                        <path d="M14.3985917,44.8996969 C21.0376244,31.0795697 31.0058802,22.3019214 44.3033592,18.566752 L36.4930363,-1.12055085 L2.18575686,21.889573 L-4.43033592,35.3750147 L14.3985917,44.8996969 Z" fill="#FF857A" mask="url(#mask-24)"></path>
                    </g>
                    <path d="M142.498387,366.359618 C47.4971225,361.541514 17.4433448,396.782989 52.337054,472.084045 C72.4172537,512.444529 99.0507831,550.858181 132.237642,587.325 C142.981137,584.969194 152.161061,579.357296 159.777415,570.489306 C165.223286,564.148486 169.306603,556.450684 172.027367,547.395898 C172.750285,544.990006 176.528557,541.067219 183.362183,535.627538 L134.814382,463.468932 C127.002092,450.039761 129.563427,444.717455 142.498387,447.502015 C161.900828,451.678854 270.081024,464.206119 259.564199,368.76867 L142.498387,366.359618 Z" id="路径-138" fill="#1E2F82"></path>
                    <path d="M246.871192,370.538756 C247.395107,370.512131 247.842639,370.912115 247.870784,371.43353 C250.782818,425.382553 214.636627,446.442645 140.257519,434.538321 C122.382167,433.375746 116.362389,440.525153 121.588188,456.624113 C126.976728,473.224427 144.344147,498.876098 173.671681,533.495079 C174.009875,533.894292 173.958858,534.490772 173.557731,534.827352 C173.156603,535.163933 172.557265,535.11316 172.21907,534.713946 L170.464752,532.636884 C142.046187,498.88771 125.157221,473.770254 119.780194,457.20541 C114.130691,439.801155 121.201098,431.403965 140.470254,432.661385 C213.886451,444.407411 248.808715,424.060424 245.973521,371.534964 C245.945377,371.013549 246.347278,370.568152 246.871192,370.538756 Z" id="路径-293" fill="#0B0B0B" fill-rule="nonzero"></path>
                    <path d="M122.485758,576.285524 C130.640079,586.976731 138.607396,598.344057 146.387709,610.3875 C158.345028,582.36124 176.916292,565.689163 202.1015,560.371269 L177.509386,525.825 C144.939369,537.617631 126.59816,554.437805 122.485758,576.285524 Z" id="路径-140" fill="#A8BDFF"></path>
                    <g id="椭圆形-+-椭圆形备份-7蒙版" transform="translate(134.734334, 47.662500)">
                        <mask id="mask-26" fill="white">
                            <use xlink:href="#path-25"></use>
                        </mask>
                        <use id="蒙版" fill="#FFA9A9" xlink:href="#path-25"></use>
                        <ellipse id="椭圆形" fill="#FF8A80" mask="url(#mask-26)" cx="69.7469852" cy="84.7897826" rx="11.5329661" ry="11.7919565"></ellipse>
                        <ellipse id="椭圆形备份-7" fill="#FF8A80" mask="url(#mask-26)" cx="11.5329661" cy="101.635435" rx="11.5329661" ry="11.7919565"></ellipse>
                        <path d="M1.86517468e-14,63.2483761 L15.6841055,57.956932 C12.8912062,48.064531 12.5690941,39.338697 14.7177691,31.7794297 C16.2175972,46.6878533 17.9897393,55.0693031 20.0341954,56.9237791 L54.5184752,51.2965442 C49.5957718,43.8760619 47.6080478,35.5857032 48.5553032,26.425468 C52.4979726,39.8008121 55.895804,48.3938767 58.7487973,52.2046617 L74.6470173,51.3178131 C75.8732707,55.0551238 77.6004473,56.9237791 79.8285473,56.9237791 L71.3597084,25.3072395 L46.613175,18.6365396 L8.22194591,23.583913 L-3.24928072,43.6983914 L1.86517468e-14,63.2483761 Z" id="路径-146" fill="#FF857A" mask="url(#mask-26)"></path>
                    </g>
                    <path d="M128.625029,64.8682422 C125.606624,87.4037245 124.808821,102.168477 126.231622,109.1625 L149.009861,103.288611 C147.096728,95.4895419 147.096728,87.2391567 149.009861,78.5374551 C151.042801,92.1379358 153.36914,99.6739548 155.988878,101.145512 L187.942294,97.8652779 C184.297907,85.5042606 182.475714,77.0783677 182.475714,72.5875992 C188.258394,87.9172722 192.40465,96.0772539 194.914482,97.0675441 C204.001135,97.0675441 208.544461,97.0675441 208.544461,97.0675441 C209.991712,100.450788 211.704729,103.165412 213.683514,105.211417 C214.271459,94.9234022 215.53829,89.7355303 217.484005,89.6478019 C219.429721,89.5600735 219.429721,73.1117486 217.484005,40.3028271 L132.43469,35.3625 L128.625029,64.8682422 Z" id="路径-150" fill="#251A6B"></path>
                    <g id="编组-6" transform="translate(173.011133, 584.250000)">
                        <g id="椭圆形">
                            <mask id="mask-28" fill="white">
                                <use xlink:href="#path-27"></use>
                            </mask>
                            <use id="蒙版" fill="#E32625" xlink:href="#path-27"></use>
                            <ellipse fill="#FFFFFF" mask="url(#mask-28)" cx="29.7441187" cy="36.118716" rx="13.6917372" ry="13.3068954"></ellipse>
                            <path d="M-4.96970742,108.532242 C12.7453672,95.8607792 24.9461477,91.6832803 31.6326342,95.9997452 L8.89962529,137.112965 L5.32907052e-15,134.025007 L-4.96970742,110.937928 L-4.96970742,108.532242 Z" id="路径-60" fill="#FFCF19" mask="url(#mask-28)"></path>
                            <path d="M26.9658424,29.8569489 C26.6752721,28.8332378 27.5575683,27.8779714 28.5716443,28.0605562 L28.6891787,28.0867341 L38.131756,30.5953457 C38.8881054,30.7962852 39.3394225,31.5763697 39.1398011,32.3377131 C38.9519221,33.0542716 38.2543941,33.4988445 37.5424087,33.3811431 L37.4088629,33.3524141 L30.3739386,31.483164 L31.5781372,35.7270355 C31.8254147,36.5982212 31.2145693,37.4656092 30.3374497,37.5393874 L30.2162476,37.5444548 L25.8915471,37.5444548 L29.5527611,43.8949112 C29.9223129,44.5358826 29.7401731,45.3464517 29.1534096,45.7691103 L29.0386857,45.8436768 C28.4019188,46.2156688 27.5966666,46.0323263 27.1767805,45.4416885 L27.1027031,45.3262071 L22.2067334,36.834364 C21.6798064,35.9204323 22.2894218,34.7842291 23.3076591,34.6981809 L23.4317624,34.6929772 L28.3381189,34.6929772 L26.9658424,29.8569489 Z" id="路径-324" fill="#FFCF19" fill-rule="nonzero" mask="url(#mask-28)"></path>
                        </g>
                        <path d="M61.254291,19.6337566 L6.66926101,131.498095 C6.4049787,132.623667 7.02173618,134.005224 8.51953347,135.642767 C10.0173308,137.28031 12.1281025,137.28031 14.8518487,135.642767 L68.9308147,22.6182181 C68.4657754,20.6285771 67.3493683,19.4777801 65.5815935,19.165827 C63.8138187,18.853874 62.3713846,19.0098505 61.254291,19.6337566 Z" id="路径-223" fill="#FFFFFF"></path>
                        <path d="M61.0252293,19.2181912 L60.8957851,19.2904869 L6.24549152,131.288574 L6.20979092,131.388783 C5.90098089,132.703997 6.57903366,134.222858 8.1722005,135.964668 C9.79471538,137.738565 12.0593727,137.790738 14.8397618,136.199922 L15.2156818,135.977587 L69.4286386,22.672999 L69.3903952,22.5093771 C68.8837037,20.3415302 67.624851,19.0438996 65.6631187,18.6977196 C63.7966868,18.3683569 62.2467581,18.5359572 61.0252293,19.2181912 Z M65.7019511,19.6742849 C67.0913741,19.9856607 67.9825145,20.9054076 68.4128835,22.4953576 L68.4303581,22.5665936 L14.4886907,135.304512 L14.6097557,135.234755 C12.0589906,136.7683 10.190779,136.7683 8.86686644,135.320866 L8.68086934,135.113576 C7.47579743,133.743612 6.96800173,132.613233 7.10357636,131.736944 L7.11970333,131.650819 L61.6099845,19.9822044 L61.4833528,20.0493219 C62.496011,19.4837439 63.8309507,19.3393912 65.5000684,19.6339345 L65.7019511,19.6742849 Z" id="路径-223备份" fill="#000000" fill-rule="nonzero"></path>
                        <path d="M16.0523815,55.4172762 C17.0953798,55.4172762 17.940897,56.2683762 17.940897,57.3182613 C17.940897,58.3204243 17.1704981,59.1414629 16.1933236,59.2140322 L16.0523815,59.2192463 L1.88851547,59.2192463 C0.845517177,59.2192463 0,58.3681463 0,57.3182613 C0,56.3160983 0.770398916,55.4950597 1.74757335,55.4224904 L1.88851547,55.4172762 L16.0523815,55.4172762 Z" id="路径-325" fill="#FFFFFF" fill-rule="nonzero"></path>
                        <path d="M16.0523815,63.6829993 C17.0953798,63.6829993 17.940897,64.5340993 17.940897,65.5839844 C17.940897,66.5861474 17.1704981,67.407186 16.1933236,67.4797553 L16.0523815,67.4849694 L1.88851547,67.4849694 C0.845517177,67.4849694 0,66.6338694 0,65.5839844 C0,64.5818214 0.770398916,63.7607828 1.74757335,63.6882135 L1.88851547,63.6829993 L16.0523815,63.6829993 Z" id="路径-325备份" fill="#FFFFFF" fill-rule="nonzero"></path>
                    </g>
                    <g id="编组-7" transform="translate(70.429311, 601.162500)">
                        <g id="路径-326" transform="translate(0.464790, 0.000000)">
                            <mask id="mask-30" fill="white">
                                <use xlink:href="#path-29"></use>
                            </mask>
                            <use id="蒙版" fill="#E32625" xlink:href="#path-29"></use>
                            <path d="M0.480679965,99.8438395 C16.2385076,88.5746156 29.1599263,84.8182077 39.2449359,88.5746156 L13.4541871,135.069876 L0.480679965,132.474627 L-4.72734829,121.037968 L0.480679965,99.8438395 Z" fill="#FFCF19" mask="url(#mask-30)"></path>
                            <path d="" id="路径-224" stroke="#979797" mask="url(#mask-30)"></path>
                        </g>
                        <ellipse id="椭圆形" fill="#FFFFFF" cx="41.1279301" cy="36.6926124" rx="11.8183707" ry="11.9131858"></ellipse>
                        <path d="M68.7551189,24.9609648 L58.2444644,44.8444545 L13.7466268,129.023064 C12.898293,130.925147 13.1081907,132.41752 14.3763198,133.500184 C15.6444489,134.582849 17.436987,135.194051 19.7539342,135.333791 C53.2759516,71.3391768 72.2189876,35.3400421 76.5830423,27.3363872 C74.2620115,26.0331686 72.6537302,25.6418463 71.2551163,25.0916064 C70.3227071,24.7247798 69.4893746,24.6812326 68.7551189,24.9609648 Z" id="路径-225" fill="#FFFFFF"></path>
                        <path d="M68.5879908,24.5152109 L68.4215769,24.5786102 L13.3294247,128.798973 C12.3863832,130.91079 12.6285347,132.632489 14.0707921,133.863815 C15.4248762,135.019864 17.3140508,135.664016 19.7256999,135.809468 L20.0297472,135.827806 L48.5942206,81.3507906 C64.1284882,51.7656045 73.503633,34.0075402 76.718102,28.0795185 L77.223744,27.1506644 L76.8130827,26.9200853 C75.8961415,26.4052387 75.0386135,26.0003055 74.1411074,25.6419552 C73.8785916,25.5371395 73.6189668,25.4385801 73.3318131,25.3340004 L72.051444,24.8805099 L71.569178,24.7028235 C71.5206818,24.684281 71.4734353,24.6659622 71.426992,24.6476906 C70.3919745,24.240496 69.4396968,24.1907332 68.5879908,24.5152109 Z M71.0832407,25.5355222 L71.3895037,25.6526597 L72.7195223,26.1256228 C73.1210376,26.2685541 73.4552903,26.3932219 73.7929294,26.5280323 L74.2202144,26.7037279 C74.6450789,26.8836556 75.0640617,27.0771501 75.4895782,27.2920449 L75.9401229,27.5261307 L74.6795642,29.8671875 C69.7062128,39.1469938 57.2223233,62.8490937 37.2258042,100.977421 L19.4795114,134.836297 L19.0608969,134.797004 C17.1893985,134.590264 15.7326689,134.033692 14.6818475,133.136554 C13.5878467,132.202551 13.4102029,130.939503 14.1777915,129.218463 L69.0826315,25.3522125 L69.2684711,25.305652 C69.802645,25.1948651 70.4043127,25.2684197 71.0832407,25.5355222 Z" id="路径-225备份" fill="#000000" fill-rule="nonzero"></path>
                        <path d="M38.3183119,30.8994041 C37.9158926,29.7965713 38.9269545,28.7225343 40.0180942,29.0250977 L40.1352477,29.0628442 L49.6287397,32.5529188 C50.3645832,32.8234355 50.7435504,33.6440374 50.4751866,34.3857844 C50.222609,35.0838992 49.4866368,35.4633521 48.7874483,35.2800464 L48.6569085,35.2390221 L42.0346355,32.8041485 L43.2743499,36.1991042 C43.6206519,37.1481476 42.9085248,38.134439 41.9307571,38.1223771 L41.80721,38.1155947 L38.3397401,37.7781419 L40.8939762,42.4916757 C41.2473487,43.1438289 41.0441334,43.951544 40.4459148,44.359846 L40.3291594,44.4315865 C39.6821966,44.7877939 38.8809099,44.5829483 38.4758576,43.9799304 L38.404688,43.8622383 L34.5682367,36.7820202 C34.0422612,35.8113259 34.7613876,34.6499546 35.8289895,34.6669495 L35.9490004,34.6737566 L39.8326367,35.0504989 L38.3183119,30.8994041 Z" id="路径-327" fill="#FFCF19" fill-rule="nonzero"></path>
                        <path d="M25.3560189,53.8476 C26.6614401,53.8476 27.7196931,54.914343 27.7196931,56.2302372 C27.7196931,57.4934956 26.7444071,58.5271363 25.5114311,58.6078063 L25.3560189,58.6128744 L7.56375726,58.6128744 C6.25833608,58.6128744 5.20008312,57.5461314 5.20008312,56.2302372 C5.20008312,54.9669788 6.17536905,53.9333381 7.40834504,53.8526681 L7.56375726,53.8476 L25.3560189,53.8476 Z" id="路径-328" fill="#FFFFFF" fill-rule="nonzero"></path>
                        <path d="M25.3560189,62.4250938 C26.6614401,62.4250938 27.7196931,63.4918368 27.7196931,64.807731 C27.7196931,66.0709894 26.7444071,67.1046301 25.5114311,67.1853001 L25.3560189,67.1903682 L7.56375726,67.1903682 C6.25833608,67.1903682 5.20008312,66.1236252 5.20008312,64.807731 C5.20008312,63.5444726 6.17536905,62.5108319 7.40834504,62.4301619 L7.56375726,62.4250938 L25.3560189,62.4250938 Z" id="路径-328备份" fill="#FFFFFF" fill-rule="nonzero"></path>
                    </g>
                    <path d="M169.040603,527.615148 C169.660932,527.197579 170.500902,527.311101 170.980922,527.856106 L171.066566,527.963326 L195.715372,562.055014 C196.175181,562.690975 196.013625,563.566185 195.354526,564.009852 C194.734197,564.427421 193.894227,564.313899 193.414208,563.768894 L193.328564,563.661674 L168.679757,529.569986 C168.219948,528.934025 168.381504,528.058815 169.040603,527.615148 Z" id="路径-253" fill="#2D61FF" fill-rule="nonzero"></path>
                    <g id="编组-4" transform="translate(145.451837, 112.237500)">
                        <path d="M34.8564999,0.165843831 C37.8287111,-0.775796948 41.4646323,2.43427718 42.8058993,6.20500841 C44.1471663,9.97573963 45.5771692,15.7897656 40.8068616,16.8942169 C36.0365541,17.9986683 33.6819557,12.8433665 32.4838755,9.47517929 C31.2857953,6.10699208 31.8842887,1.10748461 34.8564999,0.165843831 Z" id="路径-118" fill="#272626"></path>
                        <path d="M2.95200649,6.79500814 C5.92421771,5.85336736 9.56013894,9.06344149 10.9014059,12.8341727 C12.2426729,16.6049039 13.6726758,22.4189299 8.90236824,23.5233812 C4.13206069,24.6278326 1.77746229,19.4725308 0.579382102,16.1043436 C-0.618698081,12.7361564 -0.0202047266,7.73664892 2.95200649,6.79500814 Z" id="路径-118备份" fill="#272626"></path>
                        <g id="路径-282" transform="translate(12.198777, 30.304751)">
                            <mask id="mask-32" fill="white">
                                <use xlink:href="#path-31"></use>
                            </mask>
                            <use id="蒙版" fill="#FF6666" xlink:href="#path-31"></use>
                            <path d="M5.02595642,16.1551063 C13.8994388,9.45202275 22.7707862,7.45944464 31.6399988,10.177372 L23.0304546,21.1385719 L5.02595642,16.1551063 Z" fill="#DD4141" mask="url(#mask-32)"></path>
                        </g>
                    </g>
                </g>
            </g>
        </g>
    </g>
</svg>